<svg width="166" height="166" viewBox="0 0 166 166" fill="none" xmlns="http://www.w3.org/2000/svg">
<path d="M150.107 69.3713L136.431 73.1263L134.928 67.6507C134.651 66.6446 134.57 65.7645 134.684 65.0104C134.798 64.2563 135.073 63.6374 135.51 63.1536C135.942 62.671 136.501 62.3356 137.187 62.1474C137.721 62.0007 138.22 61.9786 138.684 62.081C139.143 62.1847 139.553 62.3881 139.914 62.6911C140.269 62.9909 140.566 63.3644 140.803 63.8114L140.937 63.7747C140.816 63.2477 140.829 62.7199 140.976 62.1913C141.122 61.6582 141.4 61.182 141.812 60.7626C142.219 60.3445 142.758 60.0431 143.43 59.8585C144.156 59.6593 144.853 59.6617 145.522 59.8659C146.185 60.0668 146.777 60.4715 147.299 61.0799C147.82 61.6884 148.221 62.5046 148.503 63.5285L150.107 69.3713ZM146.949 67.129L146.302 64.7718C146.081 63.9661 145.766 63.4206 145.357 63.1355C144.944 62.8515 144.479 62.7805 143.963 62.9222C143.584 63.0261 143.276 63.2091 143.036 63.4711C142.797 63.733 142.642 64.0558 142.57 64.4393C142.497 64.8184 142.524 65.2395 142.651 65.7025L143.316 68.1264L146.949 67.129ZM141.36 68.6636L140.771 66.5201C140.663 66.1239 140.497 65.7912 140.275 65.5219C140.047 65.2494 139.779 65.0596 139.472 64.9524C139.164 64.8408 138.829 64.8345 138.469 64.9335C137.975 65.0692 137.624 65.3544 137.418 65.7892C137.211 66.2196 137.195 66.7553 137.371 67.3963L137.974 69.5932L141.36 68.6636Z" fill="white"/>
<path d="M146.55 57.4204L133.678 63.3712L132.419 60.6495L143.048 55.736L140.497 50.2173L142.741 49.1799L146.55 57.4204Z" fill="white"/>
<path d="M129.025 41.702C130.288 40.8088 131.531 40.2882 132.755 40.1403C133.977 39.9886 135.112 40.1582 136.161 40.6491C137.203 41.139 138.085 41.8946 138.808 42.9159C139.535 43.9447 139.955 45.0334 140.066 46.1818C140.178 47.3302 139.958 48.4551 139.409 49.5565C138.859 50.658 137.955 51.6539 136.696 52.5445C135.434 53.4377 134.192 53.9601 132.97 54.1119C131.748 54.2636 130.616 54.0945 129.574 53.6047C128.528 53.1175 127.642 52.3595 126.914 51.3306C126.191 50.3093 125.774 49.2244 125.663 48.076C125.545 46.9265 125.761 45.801 126.311 44.6996C126.858 43.5944 127.763 42.5952 129.025 41.702ZM130.781 44.1837C129.963 44.7623 129.36 45.3727 128.972 46.0149C128.581 46.6534 128.396 47.2957 128.418 47.942C128.44 48.5882 128.66 49.2072 129.079 49.7988C129.497 50.3905 130.008 50.8042 130.61 51.0398C131.212 51.2755 131.881 51.3171 132.615 51.1648C133.348 51.0087 134.123 50.6414 134.94 50.0628C135.758 49.4842 136.362 48.8757 136.753 48.2372C137.142 47.595 137.325 46.9508 137.303 46.3045C137.281 45.6583 137.061 45.0393 136.643 44.4476C136.224 43.856 135.714 43.4423 135.111 43.2067C134.509 42.971 133.842 42.9313 133.11 43.0873C132.375 43.2397 131.599 43.6051 130.781 44.1837Z" fill="white"/>
<path d="M119.236 32.7698C120.278 31.6279 121.382 30.854 122.547 30.4482C123.708 30.0394 124.853 29.9629 125.982 30.2189C127.105 30.4751 128.128 31.025 129.052 31.8687C129.982 32.7185 130.624 33.6926 130.978 34.7908C131.332 35.8891 131.358 37.0349 131.056 38.2282C130.754 39.4216 130.083 40.5875 129.043 41.7261C128 42.8681 126.898 43.6435 125.737 44.0524C124.576 44.4612 123.434 44.5375 122.311 44.2813C121.186 44.0285 120.157 43.4771 119.227 42.6273C118.303 41.7836 117.664 40.8127 117.311 39.7144C116.95 38.6165 116.921 37.4708 117.223 36.2775C117.522 35.0811 118.193 33.9118 119.236 32.7698ZM121.48 34.8198C120.805 35.5595 120.346 36.2845 120.104 36.9948C119.858 37.702 119.815 38.3689 119.974 38.9956C120.133 39.6223 120.48 40.1801 121.015 40.6688C121.55 41.1576 122.137 41.4528 122.776 41.5546C123.414 41.6563 124.076 41.5544 124.762 41.2488C125.444 40.9401 126.123 40.4159 126.798 39.6761C127.474 38.9364 127.934 38.213 128.18 37.5058C128.422 36.7955 128.464 36.127 128.305 35.5003C128.146 34.8736 127.798 34.3159 127.263 33.8271C126.728 33.3384 126.141 33.0431 125.503 32.9414C124.864 32.8396 124.204 32.9431 123.522 33.2518C122.836 33.5574 122.156 34.08 121.48 34.8198Z" fill="white"/>
<path d="M118.233 23.9989L122.561 26.5571L115.344 38.7656L110.981 36.1862C109.753 35.4604 108.84 34.5911 108.243 33.5784C107.643 32.5697 107.374 31.4694 107.435 30.2774C107.492 29.0831 107.895 27.8521 108.645 26.5844C109.396 25.3126 110.283 24.3619 111.304 23.7321C112.321 23.0999 113.421 22.8037 114.604 22.8435C115.783 22.8808 116.993 23.266 118.233 23.9989ZM118.672 27.2429L117.033 26.2739C116.27 25.8229 115.548 25.5786 114.868 25.5412C114.181 25.5053 113.538 25.696 112.937 26.1132C112.33 26.532 111.758 27.1965 111.22 28.1066C110.687 29.0087 110.384 29.8246 110.312 30.5543C110.236 31.2816 110.378 31.9342 110.739 32.5122C111.1 33.0902 111.662 33.6047 112.425 34.0557L114.07 35.0282L118.672 27.2429Z" fill="white"/>
<path d="M106.557 18.131L102.643 31.7621L97.185 30.195C96.1822 29.9071 95.3885 29.5183 94.8038 29.0286C94.2191 28.539 93.834 27.9817 93.6484 27.3568C93.4615 26.7364 93.4661 26.0846 93.6623 25.4012C93.8152 24.8688 94.0561 24.4312 94.385 24.0886C94.7127 23.7504 95.0998 23.5061 95.5464 23.3558C95.9874 23.2086 96.4605 23.1499 96.9658 23.1798L97.0041 23.0466C96.4913 22.8754 96.0474 22.5895 95.6726 22.1888C95.2933 21.787 95.0317 21.3012 94.8878 20.7316C94.7427 20.1664 94.7664 19.5488 94.9587 18.8788C95.1664 18.1555 95.5315 17.5615 96.054 17.0967C96.5707 16.6351 97.2246 16.3401 98.0155 16.2118C98.8064 16.0835 99.7122 16.1658 100.733 16.4588L106.557 18.131ZM102.998 19.6597L100.649 18.9851C99.8454 18.7545 99.2158 18.7394 98.7596 18.9398C98.3021 19.1447 97.9995 19.5045 97.8517 20.0192C97.7434 20.3963 97.7388 20.7552 97.8379 21.0959C97.937 21.4366 98.1317 21.7374 98.4217 21.9984C98.7074 22.2581 99.081 22.4542 99.5424 22.5867L101.958 23.2804L102.998 19.6597ZM101.399 25.2306L99.262 24.6171C98.8671 24.5037 98.4968 24.4719 98.1512 24.5215C97.7998 24.5743 97.4984 24.7039 97.247 24.9103C96.9912 25.1155 96.8117 25.3977 96.7085 25.7571C96.5671 26.2497 96.6284 26.6971 96.8923 27.0995C97.1517 27.5006 97.6009 27.7929 98.2399 27.9763L100.43 28.6051L101.399 25.2306Z" fill="white"/>
<path d="M89.3121 28.6094L91.4246 14.5858L94.3896 15.0324L92.277 29.056L89.3121 28.6094Z" fill="white"/>
<path d="M89.2679 14.1383L89.0592 28.3186L86.0612 28.2745L86.1532 22.0221L85.9662 22.0194L80.7713 28.1966L77.1777 28.1438L82.5334 21.8719L77.3241 13.9626L80.9107 14.0153L84.7092 19.9025L86.2105 18.1239L86.2698 14.0942L89.2679 14.1383Z" fill="white"/>
<path d="M76.2328 14.2011L78.5413 28.1938L69.1127 29.7494L68.7103 27.3102L75.1805 26.2427L74.6304 22.9085L68.6453 23.896L68.2429 21.4568L74.228 20.4694L73.6768 17.1284L67.1792 18.2004L66.7768 15.7612L76.2328 14.2011Z" fill="white"/>
<path d="M60.8858 28.3131C61.1229 28.8219 61.4909 29.1527 61.9896 29.3056C62.4884 29.4585 63.0776 29.4158 63.7572 29.1775C64.219 29.0156 64.586 28.8136 64.8582 28.5714C65.1319 28.3335 65.314 28.0715 65.4045 27.7854C65.4906 27.5009 65.4833 27.2148 65.3824 26.9273C65.3072 26.6846 65.1837 26.4931 65.0122 26.3526C64.8363 26.2137 64.6274 26.1133 64.3856 26.0514C64.1452 25.9938 63.8797 25.9621 63.5891 25.9564C63.3 25.955 62.998 25.9728 62.6832 26.0098L61.3801 26.1439C60.7505 26.2179 60.1535 26.2315 59.5892 26.1847C59.0249 26.138 58.5084 26.0182 58.0397 25.8255C57.5709 25.6327 57.1629 25.355 56.8157 24.9925C56.4641 24.6314 56.1883 24.1729 55.9885 23.6168C55.7056 22.7962 55.6658 22.0128 55.8689 21.2665C56.0691 20.5261 56.4989 19.8544 57.1583 19.2514C57.8148 18.6543 58.6876 18.1648 59.7767 17.783C60.8571 17.4042 61.8562 17.2398 62.7739 17.2898C63.6872 17.3414 64.482 17.6131 65.1583 18.1048C65.8318 18.6025 66.3482 19.3289 66.7075 20.2841L63.9695 21.2441C63.7817 20.806 63.5218 20.4765 63.1899 20.2553C62.8551 20.04 62.4693 19.9233 62.0325 19.9053C61.5928 19.8931 61.129 19.9725 60.6411 20.1436C60.1619 20.3116 59.7703 20.5272 59.4663 20.7903C59.158 21.055 58.9493 21.3459 58.8403 21.6629C58.7313 21.98 58.7334 22.2997 58.8464 22.6221C58.9518 22.9227 59.1297 23.144 59.3801 23.2861C59.6262 23.4298 59.9443 23.5139 60.3345 23.5386C60.7203 23.5647 61.1779 23.5511 61.707 23.4976L63.2926 23.3526C64.5171 23.2315 65.5585 23.3482 66.4166 23.7029C67.2748 24.0575 67.875 24.73 68.2174 25.7205C68.5059 26.5293 68.5384 27.3128 68.3151 28.0711C68.0874 28.8309 67.6498 29.5151 67.0022 30.1238C66.3546 30.7324 65.5429 31.2078 64.567 31.55C63.5738 31.8982 62.6472 32.0323 61.7875 31.9521C60.9234 31.8735 60.1783 31.604 59.5521 31.1436C58.9259 30.6831 58.4665 30.0566 58.1739 29.2639L60.8858 28.3131Z" fill="white"/>
<path d="M46.6624 24.0672L58.2506 33.1943L55.5943 35.1106L47.9254 28.4927L47.8299 28.5616L51.4948 38.0682L49.2204 39.709L41.3483 33.212L41.2472 33.285L45.1208 42.6666L42.4645 44.5829L37.458 30.7075L39.8279 28.9978L47.443 34.9374L47.5328 34.8725L44.2925 25.7769L46.6624 24.0672Z" fill="white"/>
<path d="M33.1666 35.0915L35.2633 32.6568L42.8147 45.621L40.2933 48.5489L26.3569 42.999L28.4535 40.5643L39.0622 45.0121L39.1345 44.9282L33.1666 35.0915ZM37.5216 38.5769L32.5691 44.3278L30.7955 42.8005L35.7481 37.0496L37.5216 38.5769Z" fill="white"/>
<path d="M25.7926 44.1767L38.0193 51.3623L36.5001 53.9473L26.4047 48.0143L23.3242 53.2561L21.1929 52.0035L25.7926 44.1767Z" fill="white"/>
<path d="M20.4946 53.4529L33.7183 58.5771L30.2655 67.4876L27.9604 66.5944L30.3298 60.4797L27.1788 59.2587L24.987 64.915L22.6819 64.0217L24.8737 58.3655L21.7163 57.142L19.3369 63.2825L17.0317 62.3893L20.4946 53.4529Z" fill="white"/>
<path d="M24.8824 73.7658C25.4411 73.8195 25.9129 73.6703 26.2976 73.318C26.6824 72.9657 26.9445 72.4362 27.0838 71.7297C27.1785 71.2496 27.1906 70.8308 27.1199 70.4734C27.0538 70.1168 26.9204 69.827 26.7197 69.6039C26.5181 69.3854 26.2679 69.2466 25.9689 69.1876C25.7216 69.1294 25.4939 69.1386 25.2859 69.2152C25.077 69.2964 24.8845 69.4254 24.7084 69.6025C24.5369 69.7804 24.3749 69.9931 24.2226 70.2407C24.0747 70.4891 23.9369 70.7584 23.8091 71.0484L23.2636 72.2395C23.008 72.8197 22.717 73.341 22.3905 73.8036C22.0639 74.2662 21.6987 74.6506 21.2948 74.9568C20.8909 75.263 20.4447 75.4737 19.9561 75.5891C19.4666 75.709 18.9316 75.714 18.3509 75.6042C17.5003 75.4317 16.805 75.0687 16.2648 74.5151C15.7283 73.967 15.3674 73.2559 15.1822 72.3818C15.0007 71.5131 15.0216 70.5126 15.2449 69.3803C15.4665 68.2571 15.8316 67.3127 16.3402 66.5472C16.8479 65.7863 17.4852 65.2391 18.252 64.9057C19.0225 64.5778 19.9105 64.5012 20.9159 64.676L20.3544 67.5226C19.8817 67.4622 19.4658 67.519 19.1068 67.6929C18.7515 67.8722 18.4552 68.1455 18.2181 68.5128C17.9846 68.8855 17.8178 69.3255 17.7178 69.8328C17.6195 70.331 17.6066 70.7778 17.6792 71.1733C17.7509 71.5733 17.8957 71.9006 18.1137 72.1554C18.3316 72.4101 18.6082 72.5705 18.9433 72.6367C19.2559 72.6983 19.5369 72.6573 19.7864 72.5136C20.035 72.3744 20.2689 72.1429 20.488 71.8191C20.7063 71.4998 20.9266 71.0986 21.1489 70.6155L21.8282 69.1755C22.3449 68.0587 22.9738 67.2205 23.7147 66.6608C24.4556 66.1012 25.3397 65.925 26.3669 66.1323C27.2103 66.294 27.902 66.6633 28.4422 67.2404C28.9816 67.8221 29.3493 68.5463 29.5453 69.4131C29.7413 70.2799 29.7393 71.2206 29.5392 72.2352C29.3355 73.2678 28.9811 74.1343 28.4759 74.8346C27.9699 75.5394 27.3596 76.0448 26.6452 76.3509C25.9307 76.657 25.1578 76.7351 24.3262 76.5852L24.8824 73.7658Z" fill="white"/>
<path d="M14.9638 94.0685L28.7282 90.6531L30.0957 96.1642C30.347 97.1768 30.4064 98.0587 30.2741 98.8097C30.1418 99.5608 29.8513 100.173 29.4026 100.646C28.9584 101.117 28.3913 101.439 27.7013 101.61C27.1636 101.743 26.6642 101.753 26.2031 101.639C25.7465 101.524 25.3415 101.311 24.9883 100.999C24.6406 100.69 24.3535 100.31 24.127 99.857L23.9926 99.8904C24.1003 100.42 24.0742 100.947 23.9142 101.472C23.7554 102.002 23.4652 102.471 23.0435 102.88C22.6263 103.288 22.0794 103.576 21.4028 103.744C20.6724 103.925 19.9755 103.905 19.3119 103.685C18.6539 103.467 18.0719 103.048 17.5658 102.427C17.0597 101.806 16.6787 100.98 16.423 99.9493L14.9638 94.0685ZM18.0651 96.3883L18.6538 98.7608C18.855 99.5718 19.1564 100.125 19.5578 100.42C19.9637 100.714 20.4266 100.797 20.9463 100.668C21.3272 100.573 21.6404 100.398 21.8861 100.142C22.1317 99.886 22.2952 99.5672 22.3765 99.1855C22.4589 98.8083 22.4423 98.3867 22.3266 97.9208L21.7213 95.4811L18.0651 96.3883ZM23.6905 94.9924L24.2258 97.1499C24.3248 97.5486 24.4821 97.8854 24.6977 98.1601C24.9189 98.4381 25.1816 98.6345 25.486 98.7493C25.7915 98.8685 26.1256 98.8831 26.4886 98.793C26.9859 98.6696 27.343 98.3931 27.5599 97.9635C27.7778 97.5385 27.8068 97.0033 27.6467 96.3581L27.098 94.1469L23.6905 94.9924Z" fill="white"/>
<path d="M18.2209 106.1L31.2395 100.475L32.4288 103.228L21.6795 107.872L24.091 113.453L21.8217 114.434L18.2209 106.1Z" fill="white"/>
<path d="M35.3472 122.257C34.0627 123.118 32.8067 123.607 31.5791 123.724C30.3541 123.846 29.2236 123.648 28.1877 123.13C27.1582 122.615 26.2951 121.837 25.5983 120.798C24.8964 119.751 24.5043 118.653 24.4218 117.502C24.3394 116.351 24.5867 115.232 25.1639 114.144C25.741 113.057 26.6699 112.084 27.9505 111.225C29.235 110.364 30.4898 109.873 31.7148 109.752C32.9398 109.631 34.067 109.828 35.0966 110.344C36.1299 110.857 36.9975 111.637 37.6994 112.684C38.3962 113.723 38.7857 114.818 38.8682 115.969C38.957 117.121 38.7129 118.241 38.1358 119.328C37.5612 120.419 36.6317 121.395 35.3472 122.257ZM33.6542 119.732C34.4863 119.174 35.1044 118.579 35.5086 117.947C35.9154 117.318 36.116 116.681 36.1104 116.034C36.1048 115.387 35.9002 114.763 35.4966 114.161C35.093 113.559 34.5931 113.133 33.9971 112.882C33.401 112.632 32.7338 112.573 31.9954 112.707C31.2595 112.845 30.4756 113.192 29.6435 113.75C28.8115 114.308 28.1921 114.901 27.7853 115.53C27.3811 116.162 27.1818 116.802 27.1873 117.448C27.1929 118.095 27.3975 118.719 27.8011 119.321C28.2048 119.923 28.7046 120.349 29.3007 120.6C29.8967 120.851 30.5627 120.907 31.2985 120.769C32.0369 120.636 32.8222 120.29 33.6542 119.732Z" fill="white"/>
<path d="M44.9153 131.431C43.8445 132.547 42.722 133.293 41.5478 133.67C40.3769 134.05 39.2303 134.098 38.1078 133.814C36.9918 133.53 35.9825 132.955 35.0799 132.089C34.1706 131.217 33.5527 130.227 33.2263 129.12C32.8998 128.014 32.9024 126.867 33.2338 125.682C33.5653 124.496 34.2649 123.347 35.3325 122.235C36.4033 121.119 37.5242 120.371 38.695 119.991C39.8659 119.611 41.0093 119.563 42.1252 119.847C43.2444 120.128 44.2586 120.704 45.1679 121.577C46.0706 122.443 46.6851 123.43 47.0116 124.536C47.3445 125.643 47.3452 126.789 47.0138 127.974C46.6856 129.163 45.9861 130.315 44.9153 131.431ZM42.722 129.326C43.4156 128.604 43.8923 127.89 44.1521 127.186C44.4152 126.485 44.4749 125.82 44.3313 125.189C44.1878 124.559 43.8545 123.992 43.3316 123.491C42.8086 122.989 42.2292 122.679 41.5934 122.562C40.9576 122.444 40.2933 122.53 39.6005 122.818C38.911 123.11 38.2195 123.617 37.5259 124.34C36.8322 125.063 36.3539 125.774 36.0907 126.475C35.831 127.179 35.7729 127.847 35.9165 128.477C36.06 129.108 36.3933 129.674 36.9162 130.176C37.4392 130.677 38.0186 130.987 38.6544 131.105C39.2902 131.222 39.9529 131.135 40.6423 130.843C41.3351 130.555 42.0283 130.049 42.722 129.326Z" fill="white"/>
<path d="M45.703 140.225L41.4396 137.561L48.9549 125.534L53.2535 128.22C54.4633 128.976 55.3542 129.868 55.9263 130.895C56.5009 131.918 56.743 133.025 56.6526 134.215C56.566 135.407 56.1326 136.628 55.3522 137.877C54.5693 139.13 53.6597 140.058 52.6234 140.663C51.5909 141.27 50.4838 141.539 49.302 141.47C48.1241 141.403 46.9245 140.988 45.703 140.225ZM45.3438 136.971L46.9587 137.98C47.7104 138.45 48.4258 138.712 49.105 138.766C49.7906 138.819 50.4387 138.644 51.0494 138.242C51.6664 137.838 52.2551 137.188 52.8153 136.292C53.3706 135.403 53.6933 134.595 53.7832 133.867C53.8771 133.142 53.7508 132.486 53.4043 131.899C53.0578 131.313 52.5087 130.784 51.757 130.315L50.1362 129.302L45.3438 136.971Z" fill="white"/>
<path d="M57.2279 146.379L61.4805 132.849L66.8975 134.552C67.8928 134.865 68.6766 135.273 69.2489 135.777C69.8211 136.282 70.1922 136.848 70.3622 137.478C70.5336 138.102 70.5127 138.754 70.2995 139.432C70.1334 139.961 69.8816 140.392 69.5443 140.726C69.2083 141.056 68.8152 141.291 68.3649 141.43C67.9205 141.566 67.4461 141.613 66.9416 141.571L66.9001 141.703C67.4084 141.887 67.845 142.184 68.2098 142.593C68.5789 143.005 68.8283 143.497 68.9579 144.07C69.0889 144.638 69.0498 145.255 68.8408 145.92C68.6152 146.638 68.2354 147.223 67.7015 147.674C67.1733 148.123 66.5123 148.402 65.7185 148.51C64.9246 148.619 64.0212 148.514 63.0082 148.195L57.2279 146.379ZM60.8234 144.939L63.1554 145.672C63.9525 145.923 64.5816 145.953 65.0427 145.764C65.5051 145.571 65.8166 145.219 65.9772 144.708C66.0948 144.334 66.1084 143.975 66.0178 143.632C65.9272 143.289 65.7402 142.983 65.4567 142.715C65.1776 142.448 64.809 142.243 64.351 142.099L61.953 141.345L60.8234 144.939ZM62.5614 139.41L64.682 140.076C65.0739 140.2 65.4433 140.241 65.7901 140.2C66.1427 140.156 66.4472 140.034 66.7037 139.834C66.9645 139.635 67.151 139.357 67.2631 139C67.4168 138.512 67.3667 138.063 67.1129 137.654C66.8636 137.246 66.4218 136.943 65.7876 136.744L63.6142 136.061L62.5614 139.41Z" fill="white"/>
<path d="M74.7379 136.336L72.2768 150.302L69.3239 149.782L71.785 135.815L74.7379 136.336Z" fill="white"/>
<path d="M74.4136 150.803L74.9762 136.632L77.9723 136.751L77.7242 142.999L77.911 143.006L83.2586 136.961L86.8497 137.103L81.3391 143.24L86.3493 151.277L82.7652 151.134L79.1148 145.154L77.5695 146.895L77.4096 150.922L74.4136 150.803Z" fill="white"/>
<path d="M87.42 151.067L85.459 137.021L94.9233 135.7L95.2652 138.148L88.7705 139.055L89.2377 142.402L95.2455 141.563L95.5873 144.012L89.5796 144.85L90.0478 148.204L96.5699 147.293L96.9118 149.742L87.42 151.067Z" fill="white"/>
<path d="M103.151 137.329C102.926 136.814 102.566 136.475 102.072 136.31C101.577 136.144 100.987 136.173 100.301 136.394C99.8357 136.545 99.4638 136.737 99.1857 136.973C98.9062 137.204 98.7177 137.461 98.6202 137.745C98.5271 138.027 98.5274 138.314 98.6211 138.604C98.6904 138.848 98.8091 139.043 98.9771 139.187C99.1495 139.33 99.3559 139.436 99.5961 139.504C99.835 139.567 100.1 139.605 100.39 139.618C100.679 139.627 100.981 139.616 101.297 139.587L102.603 139.485C103.234 139.427 103.831 139.428 104.394 139.489C104.957 139.549 105.471 139.682 105.935 139.886C106.398 140.09 106.799 140.378 107.138 140.749C107.48 141.118 107.745 141.584 107.931 142.145C108.193 142.972 108.214 143.756 107.992 144.497C107.774 145.232 107.328 145.893 106.654 146.48C105.983 147.06 105.098 147.528 104 147.883C102.91 148.235 101.908 148.375 100.991 148.302C100.08 148.228 99.2918 147.937 98.6278 147.429C97.9668 146.915 97.4685 146.176 97.1328 145.212L99.8936 144.32C100.071 144.762 100.322 145.098 100.649 145.328C100.978 145.551 101.361 145.677 101.797 145.706C102.236 145.729 102.702 145.661 103.194 145.502C103.677 145.346 104.074 145.14 104.384 144.884C104.699 144.627 104.915 144.342 105.032 144.028C105.148 143.713 105.154 143.394 105.049 143.069C104.951 142.765 104.779 142.54 104.532 142.391C104.289 142.242 103.974 142.15 103.584 142.116C103.199 142.08 102.741 142.082 102.211 142.123L100.622 142.229C99.3951 142.32 98.357 142.177 97.5078 141.802C96.6587 141.426 96.0752 140.739 95.7573 139.74C95.4888 138.924 95.4756 138.14 95.7175 137.388C95.9639 136.634 96.4182 135.961 97.0806 135.368C97.743 134.776 98.5662 134.32 99.5502 134.002C100.552 133.679 101.481 133.567 102.339 133.669C103.201 133.769 103.939 134.056 104.554 134.532C105.168 135.008 105.612 135.646 105.885 136.445L103.151 137.329Z" fill="white"/>
<path d="M117.247 141.937L105.891 132.522L108.595 130.673L116.096 137.481L116.193 137.414L112.767 127.819L115.082 126.236L122.789 132.928L122.892 132.857L119.254 123.382L121.958 121.532L126.615 135.529L124.203 137.179L116.739 131.05L116.648 131.113L119.659 140.287L117.247 141.937Z" fill="white"/>
<path d="M131.018 131.249L128.862 133.631L121.633 120.484L124.226 117.619L138.021 123.512L135.865 125.894L125.37 121.185L125.295 121.268L131.018 131.249ZM126.751 127.657L131.844 122.03L133.579 123.601L128.486 129.227L126.751 127.657Z" fill="white"/>
<path d="M138.615 122.347L126.569 114.862L128.152 112.316L138.098 118.496L141.307 113.332L143.406 114.636L138.615 122.347Z" fill="white"/>
<path d="M144.143 113.2L131.05 107.75L134.722 98.928L137.004 99.878L134.484 105.932L137.604 107.231L139.935 101.63L142.217 102.58L139.886 108.181L143.012 109.482L145.543 103.402L147.825 104.352L144.143 113.2Z" fill="white"/>
<path d="M140.262 92.7756C139.704 92.708 139.229 92.8455 138.836 93.1882C138.442 93.5309 138.167 94.0536 138.01 94.7565C137.904 95.2341 137.881 95.6525 137.943 96.0115C138 96.3696 138.127 96.6626 138.322 96.8906C138.518 97.1141 138.765 97.2591 139.062 97.3254C139.308 97.3897 139.536 97.3862 139.745 97.3147C139.956 97.2388 140.152 97.1145 140.332 96.9419C140.508 96.7683 140.675 96.5597 140.834 96.316C140.988 96.0712 141.132 95.8055 141.267 95.5187L141.842 94.3414C142.112 93.7678 142.416 93.2539 142.754 92.7995C143.092 92.3451 143.466 91.9699 143.878 91.6738C144.289 91.3777 144.74 91.1781 145.231 91.0748C145.724 90.9671 146.259 90.9753 146.837 91.0995C147.683 91.293 148.369 91.6731 148.895 92.2399C149.418 92.8012 149.761 93.521 149.924 94.3994C150.084 95.2723 150.039 96.272 149.787 97.3984C149.538 98.5158 149.15 99.4508 148.622 100.203C148.096 100.952 147.445 101.483 146.67 101.797C145.892 102.106 145.002 102.16 144.002 101.961L144.633 99.129C145.105 99.201 145.522 99.1546 145.885 98.9896C146.245 98.8192 146.548 98.5533 146.794 98.192C147.036 97.8252 147.214 97.3894 147.327 96.8848C147.437 96.3892 147.461 95.9428 147.398 95.5457C147.337 95.144 147.2 94.8132 146.988 94.5531C146.777 94.2931 146.504 94.1259 146.171 94.0515C145.86 93.9821 145.578 94.0162 145.325 94.1536C145.073 94.2866 144.833 94.5122 144.606 94.8305C144.38 95.1443 144.15 95.5399 143.916 96.0174L143.201 97.4401C142.657 98.5437 142.007 99.3661 141.253 99.9073C140.498 100.448 139.61 100.603 138.588 100.37C137.749 100.187 137.067 99.8011 136.541 99.2108C136.016 98.6159 135.667 97.8828 135.492 97.0114C135.318 96.14 135.343 95.1997 135.568 94.1904C135.797 93.1631 136.173 92.3057 136.696 91.6181C137.219 90.926 137.842 90.4359 138.563 90.1476C139.285 89.8593 140.06 89.8003 140.887 89.9708L140.262 92.7756Z" fill="white"/>
<circle cx="145.5" cy="81.5" r="2.5" fill="white"/>
<circle cx="20.5" cy="84.5" r="2.5" fill="white"/>
</svg>
