<svg width="146" height="16" viewBox="0 0 146 16" fill="none" xmlns="http://www.w3.org/2000/svg">
<path d="M0.443 15V1.155H5.825C7.541 1.155 8.854 1.4605 9.764 2.0715C10.674 2.6695 11.129 3.6185 11.129 4.9185C11.129 5.4905 11.012 5.991 10.778 6.42C10.544 6.836 10.1995 7.1675 9.7445 7.4145C9.3025 7.6615 8.763 7.811 8.126 7.863V7.824C9.283 7.902 10.167 8.24 10.778 8.838C11.402 9.423 11.714 10.203 11.714 11.178C11.714 12.465 11.259 13.427 10.349 14.064C9.452 14.688 8.165 15 6.488 15H0.443ZM3.407 12.582H6.3515C7.0665 12.582 7.6385 12.439 8.0675 12.153C8.5095 11.854 8.7305 11.412 8.7305 10.827C8.7305 10.242 8.5095 9.8 8.0675 9.501C7.6385 9.189 7.0665 9.033 6.3515 9.033H3.407V12.582ZM3.407 6.888H5.747C6.475 6.888 7.0535 6.745 7.4825 6.459C7.9245 6.173 8.1455 5.7635 8.1455 5.2305C8.1455 4.6585 7.931 4.2425 7.502 3.9825C7.086 3.7095 6.501 3.573 5.747 3.573H3.407V6.888ZM14.6111 15C13.7531 15 13.0836 14.7855 12.6026 14.3565C12.1216 13.9275 11.8811 13.232 11.8811 12.27V1.155H14.8061V11.958C14.8061 12.27 14.8776 12.491 15.0206 12.621C15.1636 12.751 15.3716 12.816 15.6446 12.816H16.3466V15H14.6111ZM20.787 15.234C19.721 15.234 18.7915 15.013 17.9985 14.571C17.2055 14.116 16.588 13.479 16.146 12.66C15.704 11.841 15.483 10.879 15.483 9.774C15.483 8.669 15.704 7.7135 16.146 6.9075C16.588 6.0885 17.2055 5.4515 17.9985 4.9965C18.7915 4.5415 19.721 4.314 20.787 4.314C21.853 4.314 22.7825 4.5415 23.5755 4.9965C24.3685 5.4515 24.986 6.0885 25.428 6.9075C25.87 7.7135 26.091 8.669 26.091 9.774C26.091 10.879 25.87 11.841 25.428 12.66C24.986 13.479 24.3685 14.116 23.5755 14.571C22.7825 15.013 21.853 15.234 20.787 15.234ZM20.787 12.9915C21.515 12.9915 22.0805 12.712 22.4835 12.153C22.8865 11.581 23.088 10.788 23.088 9.774C23.088 8.76 22.8865 7.9735 22.4835 7.4145C22.0805 6.8425 21.515 6.5565 20.787 6.5565C20.059 6.5565 19.4935 6.8425 19.0905 7.4145C18.6875 7.9735 18.486 8.76 18.486 9.774C18.486 10.788 18.6875 11.581 19.0905 12.153C19.4935 12.712 20.059 12.9915 20.787 12.9915ZM30.8958 15.234C29.8298 15.234 28.9003 15.013 28.1073 14.571C27.3143 14.116 26.6968 13.479 26.2548 12.66C25.8128 11.841 25.5918 10.879 25.5918 9.774C25.5918 8.669 25.8128 7.7135 26.2548 6.9075C26.6968 6.0885 27.3143 5.4515 28.1073 4.9965C28.9003 4.5415 29.8298 4.314 30.8958 4.314C31.9618 4.314 32.8913 4.5415 33.6843 4.9965C34.4773 5.4515 35.0948 6.0885 35.5368 6.9075C35.9788 7.7135 36.1998 8.669 36.1998 9.774C36.1998 10.879 35.9788 11.841 35.5368 12.66C35.0948 13.479 34.4773 14.116 33.6843 14.571C32.8913 15.013 31.9618 15.234 30.8958 15.234ZM30.8958 12.9915C31.6238 12.9915 32.1893 12.712 32.5923 12.153C32.9953 11.581 33.1968 10.788 33.1968 9.774C33.1968 8.76 32.9953 7.9735 32.5923 7.4145C32.1893 6.8425 31.6238 6.5565 30.8958 6.5565C30.1678 6.5565 29.6023 6.8425 29.1993 7.4145C28.7963 7.9735 28.5948 8.76 28.5948 9.774C28.5948 10.788 28.7963 11.581 29.1993 12.153C29.6023 12.712 30.1678 12.9915 30.8958 12.9915ZM39.9905 15.234C39.1065 15.234 38.3395 15.013 37.6895 14.571C37.0525 14.116 36.5585 13.4855 36.2075 12.6795C35.8695 11.8605 35.7005 10.892 35.7005 9.774C35.7005 8.656 35.876 7.694 36.227 6.888C36.578 6.069 37.072 5.4385 37.709 4.9965C38.359 4.5415 39.1195 4.314 39.9905 4.314C40.7315 4.314 41.3685 4.47 41.9015 4.782C42.4475 5.081 42.857 5.497 43.13 6.03V1.155H46.055V15H43.2665L43.208 13.4595C42.922 14.0185 42.493 14.454 41.921 14.766C41.362 15.078 40.7185 15.234 39.9905 15.234ZM40.946 12.9915C41.414 12.9915 41.8105 12.868 42.1355 12.621C42.4605 12.374 42.7075 12.0165 42.8765 11.5485C43.0455 11.0675 43.13 10.476 43.13 9.774C43.13 9.059 43.0455 8.4675 42.8765 7.9995C42.7075 7.5185 42.4605 7.161 42.1355 6.927C41.8105 6.68 41.414 6.5565 40.946 6.5565C40.257 6.5565 39.711 6.849 39.308 7.434C38.905 8.006 38.7035 8.786 38.7035 9.774C38.7035 10.749 38.905 11.529 39.308 12.114C39.724 12.699 40.27 12.9915 40.946 12.9915ZM49.7079 15V1.155H55.0899C56.8059 1.155 58.1189 1.4605 59.0289 2.0715C59.9389 2.6695 60.3939 3.6185 60.3939 4.9185C60.3939 5.4905 60.2769 5.991 60.0429 6.42C59.8089 6.836 59.4644 7.1675 59.0094 7.4145C58.5674 7.6615 58.0279 7.811 57.3909 7.863V7.824C58.5479 7.902 59.4319 8.24 60.0429 8.838C60.6669 9.423 60.9789 10.203 60.9789 11.178C60.9789 12.465 60.5239 13.427 59.6139 14.064C58.7169 14.688 57.4299 15 55.7529 15H49.7079ZM52.6719 12.582H55.6164C56.3314 12.582 56.9034 12.439 57.3324 12.153C57.7744 11.854 57.9954 11.412 57.9954 10.827C57.9954 10.242 57.7744 9.8 57.3324 9.501C56.9034 9.189 56.3314 9.033 55.6164 9.033H52.6719V12.582ZM52.6719 6.888H55.0119C55.7399 6.888 56.3184 6.745 56.7474 6.459C57.1894 6.173 57.4104 5.7635 57.4104 5.2305C57.4104 4.6585 57.1959 4.2425 56.7669 3.9825C56.3509 3.7095 55.7659 3.573 55.0119 3.573H52.6719V6.888ZM61.3555 15V4.548H64.2805V15H61.3555ZM61.297 3.261V0.920999H64.3195V3.261H61.297ZM64.8183 15V1.155H67.7433V8.838L71.6238 4.548H75.1338L71.0778 8.8575L75.2508 15H72.0528L69.1863 10.515L67.7433 12.0555V15H64.8183ZM78.9981 15.234C77.9321 15.234 77.0026 15.013 76.2096 14.571C75.4296 14.116 74.8186 13.479 74.3766 12.66C73.9476 11.841 73.7331 10.879 73.7331 9.774C73.7331 8.669 73.9476 7.7135 74.3766 6.9075C74.8186 6.0885 75.4296 5.4515 76.2096 4.9965C76.9896 4.5415 77.9126 4.314 78.9786 4.314C80.0186 4.314 80.9221 4.5415 81.6891 4.9965C82.4561 5.4515 83.0476 6.1015 83.4636 6.9465C83.8926 7.7915 84.1071 8.799 84.1071 9.969V10.554H76.7556C76.7946 11.386 77.0156 12.0035 77.4186 12.4065C77.8346 12.8095 78.3806 13.011 79.0566 13.011C79.5506 13.011 79.9601 12.907 80.2851 12.699C80.6231 12.491 80.8636 12.1725 81.0066 11.7435L83.9511 11.919C83.6781 12.959 83.0996 13.7715 82.2156 14.3565C81.3316 14.9415 80.2591 15.234 78.9981 15.234ZM76.7556 8.76H81.1041C81.0651 7.993 80.8506 7.421 80.4606 7.044C80.0836 6.667 79.5896 6.4785 78.9786 6.4785C78.3676 6.4785 77.8606 6.68 77.4576 7.083C77.0676 7.473 76.8336 8.032 76.7556 8.76ZM88.6253 15.234C87.5463 15.234 86.6428 15.0845 85.9148 14.7855C85.1868 14.4735 84.6278 14.0575 84.2378 13.5375C83.8608 13.0045 83.6463 12.3935 83.5943 11.7045L86.5583 11.607C86.6493 12.101 86.8573 12.4845 87.1823 12.7575C87.5073 13.0305 87.9883 13.167 88.6253 13.167C89.1453 13.167 89.5483 13.0825 89.8343 12.9135C90.1333 12.7445 90.2828 12.4845 90.2828 12.1335C90.2828 11.9125 90.2308 11.7305 90.1268 11.5875C90.0228 11.4315 89.8148 11.3015 89.5028 11.1975C89.2038 11.0805 88.7553 10.9765 88.1573 10.8855C87.0523 10.6905 86.1878 10.463 85.5638 10.203C84.9398 9.943 84.4978 9.605 84.2378 9.189C83.9778 8.773 83.8478 8.266 83.8478 7.668C83.8478 6.667 84.2313 5.861 84.9983 5.25C85.7783 4.626 86.9418 4.314 88.4888 4.314C89.4768 4.314 90.3023 4.47 90.9653 4.782C91.6413 5.094 92.1613 5.523 92.5253 6.069C92.9023 6.602 93.1363 7.213 93.2273 7.902L90.2828 8.019C90.2438 7.681 90.1398 7.395 89.9708 7.161C89.8148 6.914 89.6133 6.7255 89.3663 6.5955C89.1193 6.4525 88.8203 6.381 88.4693 6.381C87.9493 6.381 87.5463 6.4915 87.2603 6.7125C86.9873 6.9205 86.8508 7.2 86.8508 7.551C86.8508 7.811 86.9093 8.0255 87.0263 8.1945C87.1563 8.3505 87.3643 8.4805 87.6503 8.5845C87.9363 8.6885 88.3198 8.773 88.8008 8.838C89.9188 8.994 90.8028 9.215 91.4528 9.501C92.1158 9.774 92.5903 10.1185 92.8763 10.5345C93.1623 10.9505 93.3053 11.464 93.3053 12.075C93.3053 12.751 93.1103 13.323 92.7203 13.791C92.3303 14.259 91.7843 14.6165 91.0823 14.8635C90.3933 15.1105 89.5743 15.234 88.6253 15.234ZM99.4055 15L95.6615 1.155H98.762L101.141 10.905L103.54 1.155H106.133L108.551 10.905L110.911 1.155H114.011L110.287 15H107.089L104.827 6.147L102.565 15H99.4055ZM116.197 15.234C115.118 15.234 114.234 14.987 113.545 14.493C112.869 13.986 112.531 13.284 112.531 12.387C112.531 11.464 112.817 10.7555 113.389 10.2615C113.974 9.7545 114.832 9.384 115.963 9.15L119.336 8.487C119.336 7.811 119.18 7.304 118.868 6.966C118.569 6.615 118.134 6.4395 117.562 6.4395C117.003 6.4395 116.567 6.5695 116.255 6.8295C115.943 7.0765 115.742 7.447 115.651 7.941L112.706 7.8045C112.901 6.6605 113.415 5.796 114.247 5.211C115.092 4.613 116.197 4.314 117.562 4.314C119.122 4.314 120.292 4.6845 121.072 5.4255C121.865 6.1665 122.261 7.252 122.261 8.682V12.2505C122.261 12.5495 122.307 12.751 122.398 12.855C122.502 12.946 122.651 12.9915 122.846 12.9915H123.139V15C123.048 15.026 122.898 15.052 122.69 15.078C122.495 15.104 122.3 15.117 122.105 15.117C121.689 15.117 121.299 15.0455 120.935 14.9025C120.584 14.7595 120.298 14.519 120.077 14.181C119.856 13.83 119.746 13.336 119.746 12.699L119.999 12.894C119.869 13.362 119.635 13.7715 119.297 14.1225C118.972 14.4735 118.543 14.7465 118.01 14.9415C117.49 15.1365 116.886 15.234 116.197 15.234ZM116.899 13.2255C117.38 13.2255 117.802 13.1345 118.166 12.9525C118.53 12.7575 118.816 12.478 119.024 12.114C119.232 11.75 119.336 11.321 119.336 10.827V10.32L116.957 10.827C116.489 10.918 116.132 11.074 115.885 11.295C115.651 11.503 115.534 11.776 115.534 12.114C115.534 12.465 115.651 12.738 115.885 12.933C116.119 13.128 116.457 13.2255 116.899 13.2255ZM125.459 15C124.601 15 123.931 14.7855 123.45 14.3565C122.969 13.9275 122.729 13.232 122.729 12.27V1.155H125.654V11.958C125.654 12.27 125.725 12.491 125.868 12.621C126.011 12.751 126.219 12.816 126.492 12.816H127.194V15H125.459ZM131.596 15.234C130.53 15.234 129.6 15.013 128.807 14.571C128.027 14.116 127.416 13.479 126.974 12.66C126.545 11.841 126.331 10.879 126.331 9.774C126.331 8.669 126.545 7.7135 126.974 6.9075C127.416 6.0885 128.027 5.4515 128.807 4.9965C129.587 4.5415 130.51 4.314 131.576 4.314C132.616 4.314 133.52 4.5415 134.287 4.9965C135.054 5.4515 135.645 6.1015 136.061 6.9465C136.49 7.7915 136.705 8.799 136.705 9.969V10.554H129.353C129.392 11.386 129.613 12.0035 130.016 12.4065C130.432 12.8095 130.978 13.011 131.654 13.011C132.148 13.011 132.558 12.907 132.883 12.699C133.221 12.491 133.461 12.1725 133.604 11.7435L136.549 11.919C136.276 12.959 135.697 13.7715 134.813 14.3565C133.929 14.9415 132.857 15.234 131.596 15.234ZM129.353 8.76H133.702C133.663 7.993 133.448 7.421 133.058 7.044C132.681 6.667 132.187 6.4785 131.576 6.4785C130.965 6.4785 130.458 6.68 130.055 7.083C129.665 7.473 129.431 8.032 129.353 8.76ZM141.223 15.234C140.144 15.234 139.24 15.0845 138.512 14.7855C137.784 14.4735 137.225 14.0575 136.835 13.5375C136.458 13.0045 136.244 12.3935 136.192 11.7045L139.156 11.607C139.247 12.101 139.455 12.4845 139.78 12.7575C140.105 13.0305 140.586 13.167 141.223 13.167C141.743 13.167 142.146 13.0825 142.432 12.9135C142.731 12.7445 142.88 12.4845 142.88 12.1335C142.88 11.9125 142.828 11.7305 142.724 11.5875C142.62 11.4315 142.412 11.3015 142.1 11.1975C141.801 11.0805 141.353 10.9765 140.755 10.8855C139.65 10.6905 138.785 10.463 138.161 10.203C137.537 9.943 137.095 9.605 136.835 9.189C136.575 8.773 136.445 8.266 136.445 7.668C136.445 6.667 136.829 5.861 137.596 5.25C138.376 4.626 139.539 4.314 141.086 4.314C142.074 4.314 142.9 4.47 143.563 4.782C144.239 5.094 144.759 5.523 145.123 6.069C145.5 6.602 145.734 7.213 145.825 7.902L142.88 8.019C142.841 7.681 142.737 7.395 142.568 7.161C142.412 6.914 142.211 6.7255 141.964 6.5955C141.717 6.4525 141.418 6.381 141.067 6.381C140.547 6.381 140.144 6.4915 139.858 6.7125C139.585 6.9205 139.448 7.2 139.448 7.551C139.448 7.811 139.507 8.0255 139.624 8.1945C139.754 8.3505 139.962 8.4805 140.248 8.5845C140.534 8.6885 140.917 8.773 141.398 8.838C142.516 8.994 143.4 9.215 144.05 9.501C144.713 9.774 145.188 10.1185 145.474 10.5345C145.76 10.9505 145.903 11.464 145.903 12.075C145.903 12.751 145.708 13.323 145.318 13.791C144.928 14.259 144.382 14.6165 143.68 14.8635C142.991 15.1105 142.172 15.234 141.223 15.234Z" fill="#9E9E9E"/>
</svg>
