<svg width="58" height="10" viewBox="0 0 58 10" fill="none" xmlns="http://www.w3.org/2000/svg">
<path d="M0.888 9V0.48H2.712V4.2L5.808 0.48H7.932L4.8 4.236L8.124 9H6.048L3.6 5.46L2.712 6.492V9H0.888ZM10.8212 9.144C10.1652 9.144 9.59319 9.008 9.10519 8.736C8.62519 8.456 8.24919 8.064 7.97719 7.56C7.71319 7.056 7.58119 6.464 7.58119 5.784C7.58119 5.104 7.71319 4.516 7.97719 4.02C8.24919 3.516 8.62519 3.124 9.10519 2.844C9.58519 2.564 10.1532 2.424 10.8092 2.424C11.4492 2.424 12.0052 2.564 12.4772 2.844C12.9492 3.124 13.3132 3.524 13.5692 4.044C13.8332 4.564 13.9652 5.184 13.9652 5.904V6.264H9.44119C9.46519 6.776 9.60119 7.156 9.84919 7.404C10.1052 7.652 10.4412 7.776 10.8572 7.776C11.1612 7.776 11.4132 7.712 11.6132 7.584C11.8212 7.456 11.9692 7.26 12.0572 6.996L13.8692 7.104C13.7012 7.744 13.3452 8.244 12.8012 8.604C12.2572 8.964 11.5972 9.144 10.8212 9.144ZM9.44119 5.16H12.1172C12.0932 4.688 11.9612 4.336 11.7212 4.104C11.4892 3.872 11.1852 3.756 10.8092 3.756C10.4332 3.756 10.1212 3.88 9.87319 4.128C9.63319 4.368 9.48919 4.712 9.44119 5.16ZM17.4896 9.144C16.8336 9.144 16.2616 9.008 15.7736 8.736C15.2936 8.456 14.9176 8.064 14.6456 7.56C14.3816 7.056 14.2496 6.464 14.2496 5.784C14.2496 5.104 14.3816 4.516 14.6456 4.02C14.9176 3.516 15.2936 3.124 15.7736 2.844C16.2536 2.564 16.8216 2.424 17.4776 2.424C18.1176 2.424 18.6736 2.564 19.1456 2.844C19.6176 3.124 19.9816 3.524 20.2376 4.044C20.5016 4.564 20.6336 5.184 20.6336 5.904V6.264H16.1096C16.1336 6.776 16.2696 7.156 16.5176 7.404C16.7736 7.652 17.1096 7.776 17.5256 7.776C17.8296 7.776 18.0816 7.712 18.2816 7.584C18.4896 7.456 18.6376 7.26 18.7256 6.996L20.5376 7.104C20.3696 7.744 20.0136 8.244 19.4696 8.604C18.9256 8.964 18.2656 9.144 17.4896 9.144ZM16.1096 5.16H18.7856C18.7616 4.688 18.6296 4.336 18.3896 4.104C18.1576 3.872 17.8536 3.756 17.4776 3.756C17.1016 3.756 16.7896 3.88 16.5416 4.128C16.3016 4.368 16.1576 4.712 16.1096 5.16ZM23.0047 9C22.4767 9 22.0647 8.868 21.7687 8.604C21.4727 8.34 21.3247 7.912 21.3247 7.32V0.48H23.1247V7.128C23.1247 7.32 23.1687 7.456 23.2567 7.536C23.3447 7.616 23.4727 7.656 23.6407 7.656H24.0727V9H23.0047ZM26.4909 9.144C25.8269 9.144 25.2829 8.992 24.8589 8.688C24.4429 8.376 24.2349 7.944 24.2349 7.392C24.2349 6.824 24.4109 6.388 24.7629 6.084C25.1229 5.772 25.6509 5.544 26.3469 5.4L28.4229 4.992C28.4229 4.576 28.3269 4.264 28.1349 4.056C27.9509 3.84 27.6829 3.732 27.3309 3.732C26.9869 3.732 26.7189 3.812 26.5269 3.972C26.3349 4.124 26.2109 4.352 26.1549 4.656L24.3429 4.572C24.4629 3.868 24.7789 3.336 25.2909 2.976C25.8109 2.608 26.4909 2.424 27.3309 2.424C28.2909 2.424 29.0109 2.652 29.4909 3.108C29.9789 3.564 30.2229 4.232 30.2229 5.112V7.308C30.2229 7.492 30.2509 7.616 30.3069 7.68C30.3709 7.736 30.4629 7.764 30.5829 7.764H30.7629V9C30.7069 9.016 30.6149 9.032 30.4869 9.048C30.3669 9.064 30.2469 9.072 30.1269 9.072C29.8709 9.072 29.6309 9.028 29.4069 8.94C29.1909 8.852 29.0149 8.704 28.8789 8.496C28.7429 8.28 28.6749 7.976 28.6749 7.584L28.8309 7.704C28.7509 7.992 28.6069 8.244 28.3989 8.46C28.1989 8.676 27.9349 8.844 27.6069 8.964C27.2869 9.084 26.9149 9.144 26.4909 9.144ZM26.9229 7.908C27.2189 7.908 27.4789 7.852 27.7029 7.74C27.9269 7.62 28.1029 7.448 28.2309 7.224C28.3589 7 28.4229 6.736 28.4229 6.432V6.12L26.9589 6.432C26.6709 6.488 26.4509 6.584 26.2989 6.72C26.1549 6.848 26.0829 7.016 26.0829 7.224C26.0829 7.44 26.1549 7.608 26.2989 7.728C26.4429 7.848 26.6509 7.908 26.9229 7.908ZM31.2279 9V2.568H32.8479L32.9199 4.452L32.6919 4.392C32.7559 3.912 32.8839 3.528 33.0759 3.24C33.2759 2.952 33.5239 2.744 33.8199 2.616C34.1159 2.488 34.4399 2.424 34.7919 2.424C35.2559 2.424 35.6479 2.524 35.9679 2.724C36.2959 2.924 36.5439 3.208 36.7119 3.576C36.8879 3.936 36.9759 4.364 36.9759 4.86V9H35.1759V5.46C35.1759 5.116 35.1479 4.824 35.0919 4.584C35.0359 4.344 34.9359 4.164 34.7919 4.044C34.6479 3.916 34.4479 3.852 34.1919 3.852C33.8159 3.852 33.5279 3.992 33.3279 4.272C33.1279 4.544 33.0279 4.94 33.0279 5.46V9H31.2279ZM40.9999 9.192C40.3359 9.192 39.7719 9.052 39.3079 8.772C38.8519 8.492 38.4999 8.112 38.2519 7.632C38.0119 7.144 37.8879 6.588 37.8799 5.964L39.7159 5.88C39.7239 6.488 39.8399 6.936 40.0639 7.224C40.2879 7.512 40.5999 7.656 40.9999 7.656C41.4079 7.656 41.7239 7.516 41.9479 7.236C42.1719 6.956 42.2839 6.524 42.2839 5.94V0.48H44.1079V5.94C44.1079 6.604 43.9759 7.18 43.7119 7.668C43.4559 8.156 43.0959 8.532 42.6319 8.796C42.1679 9.06 41.6239 9.192 40.9999 9.192ZM48.0433 9.144C47.3873 9.144 46.8153 9.008 46.3273 8.736C45.8393 8.456 45.4593 8.064 45.1873 7.56C44.9153 7.056 44.7793 6.464 44.7793 5.784C44.7793 5.104 44.9153 4.516 45.1873 4.02C45.4593 3.516 45.8393 3.124 46.3273 2.844C46.8153 2.564 47.3873 2.424 48.0433 2.424C48.6993 2.424 49.2713 2.564 49.7593 2.844C50.2473 3.124 50.6273 3.516 50.8993 4.02C51.1713 4.516 51.3073 5.104 51.3073 5.784C51.3073 6.464 51.1713 7.056 50.8993 7.56C50.6273 8.064 50.2473 8.456 49.7593 8.736C49.2713 9.008 48.6993 9.144 48.0433 9.144ZM48.0433 7.764C48.4913 7.764 48.8393 7.592 49.0873 7.248C49.3353 6.896 49.4593 6.408 49.4593 5.784C49.4593 5.16 49.3353 4.676 49.0873 4.332C48.8393 3.98 48.4913 3.804 48.0433 3.804C47.5953 3.804 47.2473 3.98 46.9993 4.332C46.7513 4.676 46.6273 5.16 46.6273 5.784C46.6273 6.408 46.7513 6.896 46.9993 7.248C47.2473 7.592 47.5953 7.764 48.0433 7.764ZM51.9481 9V2.568H53.5681L53.6401 4.452L53.4121 4.392C53.4761 3.912 53.6041 3.528 53.7961 3.24C53.9961 2.952 54.2441 2.744 54.5401 2.616C54.8361 2.488 55.1601 2.424 55.5121 2.424C55.9761 2.424 56.3681 2.524 56.6881 2.724C57.0161 2.924 57.2641 3.208 57.4321 3.576C57.6081 3.936 57.6961 4.364 57.6961 4.86V9H55.8961V5.46C55.8961 5.116 55.8681 4.824 55.8121 4.584C55.7561 4.344 55.6561 4.164 55.5121 4.044C55.3681 3.916 55.1681 3.852 54.9121 3.852C54.5361 3.852 54.2481 3.992 54.0481 4.272C53.8481 4.544 53.7481 4.94 53.7481 5.46V9H51.9481Z" fill="white"/>
</svg>
